# xmcd
#
# Track frame offsets: 
#        150
#        10158
#        28493
#        48902
#        58690
#        72196
#        93893
#        106654
#        117378
#        140158
#        156375
#        180543
#        191468
#        205328
#        226538
#        239589
#        260361
#        272712
#        292133
#        304663
#
# Disc length: 4300 seconds
#
# Revision: 0
# Processed by: cddbd v1.5.2PL0 Copyright (c) Steve Scherf et al.
# Submitted via: ExactAudioCopy v0.99pb5
#
DISCID=2110ca14
DTITLE=Memphis Slim - Legend Of The Blues Volumes 1 and  2
DYEAR=2010
DGENRE=Blues
TTITLE0=Little Lonely Girl
TTITLE1=Gone Again
TTITLE2=Forty Years Or More
TTITLE3=All By Myself
TTITLE4=Broadway Boogie
TTITLE5=Lend Me Your Love
TTITLE6=Ramble This Highway
TTITLE7=I Feel Like Ballin' The Jack
TTITLE8=Rock Me Woman
TTITLE9=This Little Woman
TTITLE10=Freedom
TTITLE11=A Long Time Baby
TTITLE12=There's A Fool In Town
TTITLE13=Only Fools Have Fun
TTITLE14=Too Late
TTITLE15=Strollin' Through The Park
TTITLE16=Dear Abby And Ann
TTITLE17=I'm Too Poor To Die
TTITLE18=I Am The Blues
TTITLE19=Gambler's Blues
EXTD=
EXTT0=
EXTT1=
EXTT2=
EXTT3=
EXTT4=
EXTT5=
EXTT6=
EXTT7=
EXTT8=
EXTT9=
EXTT10=
EXTT11=
EXTT12=
EXTT13=
EXTT14=
EXTT15=
EXTT16=
EXTT17=
EXTT18=
EXTT19=
PLAYORDER=
